HIERARCHY
ROOT pelvis
{
  OFFSET 0 100 0
  CHANNELS 6 Xposition Yposition Zposition Zrotation Xrotation Yrotation
  JOINT pelvis_right_femur
  {
    OFFSET -10.78128 -3.44521 -0.5502486
    CHANNELS 3 Zrotation Xrotation Yrotation
    JOINT right_femur_tibia
    {
      OFFSET -0.8047443 -44.0398 -0.1307829
      CHANNELS 3 Zrotation Xrotation Yrotation
      JOINT right_tibia_foot
      {
        OFFSET 3.006224 -47.83518 -5
        CHANNELS 3 Zrotation Xrotation Yrotation
        End Site
        {
          OFFSET 0 -5 15
        }
      }
    }
  }
  JOINT pelvis_left_femur
  {
    OFFSET 10.78128 -3.44521 -0.5502486
    CHANNELS 3 Zrotation Xrotation Yrotation
    JOINT left_femur_tibia
    {
      OFFSET 0.8047443 -44.0398 -0.1307829
      CHANNELS 3 Zrotation Xrotation Yrotation
      JOINT left_tibia_foot
      {
        OFFSET -4.370144 -48.10324 -4.275266
        CHANNELS 3 Zrotation Xrotation Yrotation
        End Site
        {
          OFFSET 0 -5 15
        }
      }
    }
  }
  JOINT pelvis_spine1
  {
    OFFSET 0 6.468898 -3.129235
    CHANNELS 3 Zrotation Xrotation Yrotation
    JOINT spine1
    {
      OFFSET 0 23.15396 4.99043
      CHANNELS 3 Zrotation Xrotation Yrotation
      JOINT spine2
      {
        OFFSET 0 20.79997 -5.064912
        CHANNELS 3 Zrotation Xrotation Yrotation
        JOINT neck
        {
          OFFSET 0 14.38658 9.616178
          CHANNELS 3 Zrotation Xrotation Yrotation
          End Site
          {
            OFFSET 0 20 0
          }
        }
      }
      JOINT right_manubrium
      {
        OFFSET -5.722621 16.35077 3.967754
        CHANNELS 3 Zrotation Xrotation Yrotation
        JOINT right_clavicle
        {
          OFFSET -13.16364 1.694482 -4.693211
          CHANNELS 3 Zrotation Xrotation Yrotation
          JOINT right_humerus
          {
            OFFSET -28.5034 -0.3100689 -2.792744
            CHANNELS 3 Zrotation Xrotation Yrotation
            JOINT right_radius
            {
              OFFSET -25.15693 0.02248979 -1.271978
              CHANNELS 3 Zrotation Xrotation Yrotation
              End Site
              {
                OFFSET -15 0 0
              }
            }
          }
        }
      }
      JOINT left_manubrium
      {
        OFFSET 5.722621 16.35077 3.967754
        CHANNELS 3 Zrotation Xrotation Yrotation
        JOINT left_clavicle
        {
          OFFSET 13.16364 1.694482 -4.693211
          CHANNELS 3 Zrotation Xrotation Yrotation
          JOINT left_humerus
          {
            OFFSET 29.39168 -1.063119 -2.237045
            CHANNELS 3 Zrotation Xrotation Yrotation
            JOINT left_radius
            {
              OFFSET 24.59957 -0.9528479 0.9047498
              CHANNELS 3 Zrotation Xrotation Yrotation
              End Site
              {
                OFFSET 15 -0 -0
              }
            }
          }
        }
      }
    }
  }
}
MOTION
Frames: 7
Frame Time: 0.0416666666667
-349.0809 104.1649 2695.865 -2.180925 -3.581339 -19.32211 6.36882 -17.36515 0.5426514 -0 11.83046 -0 -8.187756 -0.7229556 -4.068584 -3.16192 10.10572 -7.503847 -0 46.17139 -0 -3.444534 -9.021527 11.32579 -2.07733 -0.6317112 3.783654 -0.8142362 13.24126 -6.240049 0.1277356 22.44906 7.332174 7.610738 -16.03777 3.542139 3.361651 -17.81234 11.87641 87.99099 29.89882 -17.71488 -0 0 12.84519 -22.52962 8.977527 6.99614 9.218782 -26.12206 -8.605762 -86.31416 8.344851 11.02052 0 0 -18.69579 18.90513 11.87605 -13.82003
-351.449 105.4636 2701.658 -2.530714 -4.553141 -20.01351 6.856284 -11.56995 1.12491 -0 12.25944 -0 -8.999043 -2.127329 -3.33894 -2.698366 3.562325 -7.23411 -0 53.81595 -0 -3.183125 -6.61784 12.51717 -1.525459 -0.6563888 4.07657 -0.9117514 13.90078 -5.981047 0.311298 22.43951 6.98039 7.472271 -15.74633 3.41532 3.306703 -18.1507 12.1564 87.58135 28.03564 -17.19032 -0 0 13.67623 -23.12589 9.970242 7.290681 8.631364 -26.12661 -9.191105 -87.54593 8.58524 13.08688 0 0 -15.94529 18.64132 12.94088 -12.89094
-353.5945 106.7992 2707.01 -2.654345 -5.926097 -20.85772 6.597296 -5.861334 1.457159 -0 11.90552 -0 -8.959879 -4.034409 -2.95636 -2.280218 -3.15273 -6.657488 -0 58.03799 -0 -3.285774 -5.525932 13.63353 -0.9022747 -0.7916175 4.631171 -1.009281 14.75655 -5.652147 0.4967546 22.25965 6.5044 7.223011 -15.51014 3.238848 3.122742 -18.97926 12.52629 87.18417 25.95048 -16.4297 -0 0 15.15752 -23.6845 11.25223 7.679758 7.859137 -26.20761 -9.829768 -89.14573 8.682322 16.13872 0 0 -12.88716 18.04326 13.90681 -11.45894
-355.6027 107.9376 2712.058 -2.585451 -6.879772 -21.70412 6.0848 -1.303178 1.726445 -0 11.10506 -0 -8.390191 -6.263247 -2.815667 -1.741251 -8.45756 -6.074495 -0 57.449 -0 -3.371882 -5.370183 14.53999 -0.2419358 -1.118557 5.444956 -1.071232 15.75565 -5.345523 0.6450653 21.81726 5.8902 6.768062 -15.42255 3.026748 2.742249 -20.43871 12.94302 87.00741 23.76359 -15.59602 -0 0 17.28079 -24.12478 12.76918 8.251081 6.931954 -26.41444 -10.41556 -90.84913 8.535928 20.01841 0 0 -10.36002 16.92057 14.54667 -9.329742
-357.5385 108.6673 2717.008 -2.456665 -7.087745 -22.4981 5.638695 2.496996 1.851049 -0 10.26557 -0 -7.795574 -8.51073 -2.569323 -0.9193295 -12.61714 -5.542255 -0 51.74772 -0 -3.126043 -5.454722 15.46493 0.3972554 -1.616253 6.412271 -1.04771 16.74021 -5.152355 0.7155676 21.11734 5.169958 6.078953 -15.50458 2.793425 2.212767 -22.46424 13.33411 87.0682 21.6925 -14.73526 -0 0 19.92593 -24.30956 14.32098 9.024914 5.885682 -26.64384 -10.83498 -92.38253 8.14259 24.37612 0 0 -8.79725 15.24376 14.70893 -6.534409
-359.4146 108.8391 2722.06 -2.391011 -6.731577 -23.22949 5.280221 6.329711 1.715073 -0 9.695918 -0 -7.307202 -10.54492 -2.073945 0.2412013 -16.46635 -4.856026 -0 41.86699 -0 -2.671939 -5.426129 16.52759 0.9460079 -2.186521 7.333739 -0.9142604 17.47793 -5.110943 0.6893553 20.29269 4.434595 5.200139 -15.70519 2.589173 1.641766 -24.75436 13.60998 87.24687 19.98827 -13.81371 -0 0 22.77608 -24.18623 15.63519 10.00083 4.80147 -26.68325 -10.97675 -93.52305 7.640826 28.69285 0 0 -8.18817 13.2065 14.41544 -3.367954
-361.2285 108.4561 2727.356 -2.478048 -6.130698 -23.91079 4.997414 10.2916 1.326529 -0 9.729504 -0 -6.982267 -12.17989 -1.428629 1.553092 -20.0345 -3.989664 -0 30.1856 -0 -2.216548 -5.251494 17.58274 1.31031 -2.675403 7.965308 -0.7196955 17.72964 -5.155091 0.5926905 19.60265 3.847502 4.296736 -15.92226 2.506109 1.160994 -26.75915 13.69322 87.34194 18.9524 -12.78308 -0 0 25.26462 -23.87557 16.42288 11.11346 3.864193 -26.32817 -10.76286 -94.16415 7.275213 32.24142 0 0 -8.104357 11.26685 13.9054 -0.4724111
